<svg width="116" height="78" viewBox="0 0 116 78" fill="none" xmlns="http://www.w3.org/2000/svg">
<g id="Group 7">
<path id="Path" d="M3 33C1.34314 33 0 34.0968 0 35.4499V43.5501C0 44.9032 1.34314 46 3 46C4.65686 46 6 44.9032 6 43.5501V35.4499C6 34.0965 4.65729 33 3 33Z" fill="#FF6565"/>
<path id="Path_2" d="M14 29C12.3431 29 11 30.1049 11 31.4678V46.5322C11 47.8951 12.3431 49 14 49C15.6569 49 17 47.8951 17 46.5322V31.4678C17 30.1049 15.6569 29 14 29Z" fill="#FF6565"/>
<path id="Path_3" d="M25 25C23.3431 25 22 26.1379 22 27.5415V51.4585C22 52.8621 23.3431 54 25 54C26.6569 54 28 52.8621 28 51.4585V27.5415C28 26.1375 26.6573 25 25 25Z" fill="#FF6565"/>
<path id="Path_4" d="M36 17C34.3431 17 33 18.1413 33 19.5492V58.4508C33 59.8587 34.3431 61 36 61C37.6569 61 39 59.8587 39 58.4508V19.5492C39 18.1413 37.6569 17 36 17Z" fill="#FF6565"/>
<path id="Path_5" d="M47 0C45.3431 0 44 1.12208 44 2.50623V75.4938C44 76.8779 45.3431 78 47 78C48.6569 78 50 76.8779 50 75.4938V2.50623C50 1.12208 48.6569 0 47 0Z" fill="#FF6565"/>
<path id="Path_6" d="M58 6C56.3431 6 55 7.12943 55 8.52266V69.4773C55 70.8706 56.3431 72 58 72C59.6569 72 61 70.8706 61 69.4773V8.52266C61 7.12907 59.6569 6 58 6Z" fill="#FF6565"/>
<path id="Path_7" d="M69 19C67.3431 19 66 20.1301 66 21.5241V57.4759C66 58.8699 67.3431 60 69 60C70.6569 60 72 58.8699 72 57.4759V21.5241C72 20.1301 70.6569 19 69 19Z" fill="#FF6565"/>
<path id="Path_8" d="M80 26C78.3431 26 77 27.1339 77 28.5326V49.4674C77 50.8661 78.3431 52 80 52C81.6569 52 83 50.8661 83 49.4674V28.5326C83 27.1339 81.6569 26 80 26Z" fill="#FF6565"/>
<path id="Path_9" d="M91 29C89.3431 29 88 30.1595 88 31.5898V46.4102C88 47.8405 89.3431 49 91 49C92.6569 49 94 47.8405 94 46.4102V31.5898C94 30.1595 92.6569 29 91 29Z" fill="#FF6565"/>
<path id="Path_10" d="M102 33C100.343 33 99 34.0968 99 35.4499V43.5501C99 44.9032 100.343 46 102 46C103.657 46 105 44.9032 105 43.5501V35.4499C105 34.0965 103.657 33 102 33Z" fill="#FF6565"/>
<path id="Path_11" d="M113.5 33C112.119 33 111 34.0968 111 35.4499V43.5501C111 44.9032 112.119 46 113.5 46C114.881 46 116 44.9032 116 43.5501V35.4499C116 34.0965 114.881 33 113.5 33Z" fill="#FF6565"/>
</g>
</svg>
